<svg xmlns="http://www.w3.org/2000/svg" viewBox="0 0 32 32" id="adjustment">
  <path fill="#38004d" d="M29 8H12.46a1 1 0 0 1 0-2H29a1 1 0 0 0 0-2H12.46a1 1 0 0 1 0-2H29a3 3 0 0 1 0 6zM5.54 8H3a3 3 0 0 1 0-6h2.54a1 1 0 0 1 0 2H3a1 1 0 0 0 0 2h2.54a1 1 0 0 1 0 2z"></path>
  <path fill="#9f85ec" d="M9 10a5 5 0 1 1 5-5 5 5 0 0 1-5 5Zm0-8a3 3 0 1 0 3 3 3 3 0 0 0-3-3Z"></path>
  <path fill="#38004d" d="M29 30H18.46a1 1 0 0 1 0-2H29a1 1 0 0 0 0-2H18.46a1 1 0 0 1 0-2H29a3 3 0 0 1 0 6zm-17.46 0H3a3 3 0 0 1 0-6h8.54a1 1 0 0 1 0 2H3a1 1 0 0 0 0 2h8.54a1 1 0 0 1 0 2z"></path>
  <path fill="#9f85ec" d="M15 32a5 5 0 1 1 5-5 5 5 0 0 1-5 5Zm0-8a3 3 0 1 0 3 3 3 3 0 0 0-3-3Z"></path>
  <path fill="#38004d" d="M29 19h-2.54a1 1 0 0 1 0-2H29a1 1 0 0 0 0-2h-2.54a1 1 0 0 1 0-2H29a3 3 0 0 1 0 6zm-14 0H3a3 3 0 0 1 0-6h16.54a1 1 0 0 1 0 2H3a1 1 0 0 0 0 2h12a1 1 0 0 1 0 2z"></path>
  <path fill="#9f85ec" d="M23 21a5 5 0 1 1 5-5 5 5 0 0 1-5 5Zm0-8a3 3 0 1 0 3 3 3 3 0 0 0-3-3Z"></path>
</svg>
